<?xml version="1.0" standalone="no"?>
<!DOCTYPE svg PUBLIC "-//W3C//DTD SVG 20010904//EN"
 "http://www.w3.org/TR/2001/REC-SVG-20010904/DTD/svg10.dtd">
<svg version="1.0" xmlns="http://www.w3.org/2000/svg"
 width="50.000000pt" height="50.000000pt" viewBox="0 0 50.000000 50.000000"
 preserveAspectRatio="xMidYMid meet">

<g transform="translate(0.000000,50.000000) scale(0.100000,-0.100000)"
fill="#000000" stroke="none">
<path d="M150 414 c-45 -20 -68 -41 -91 -86 -34 -66 -17 -161 38 -210 28 -25
88 -48 125 -48 138 1 222 163 145 279 -47 71 -139 99 -217 65z m95 -80 c14
-15 25 -31 25 -35 0 -15 -18 -10 -24 7 -9 22 -50 14 -54 -11 -2 -15 8 -25 40
-40 47 -22 61 -53 33 -77 -9 -7 -22 -19 -30 -26 -12 -11 -20 -8 -47 17 -18 16
-29 33 -25 37 4 4 15 0 25 -9 24 -22 58 -22 66 0 8 21 -5 34 -46 47 -43 14
-50 57 -16 91 29 29 25 29 53 -1z"/>
<path d="M348 401 c40 -37 72 -104 72 -151 0 -47 -32 -114 -72 -151 l-33 -30
29 11 c73 27 126 99 126 170 0 71 -53 143 -126 170 l-29 11 33 -30z"/>
</g>
</svg>
